<svg xmlns="http://www.w3.org/2000/svg" xmlns:xlink="http://www.w3.org/1999/xlink" width="47" height="47" viewBox="0 0 47 47"><defs><style>.a,.b{fill:none;}.b{stroke:#fff;stroke-miterlimit:10;}.c{clip-path:url(#a);}.d{fill:#fff;}</style><clipPath id="a"><path class="a" d="M0,0H19.994V19.991H0Z" transform="translate(0 0.006)"/></clipPath></defs><g transform="translate(0.5 0.5)"><circle class="b" cx="23" cy="23" r="23"/><g transform="translate(13 13)"><path class="a" d="M0,0H19.994V19.991H0Z" transform="translate(0 0.006)"/><g class="c"><path class="d" d="M10,19.993c-2.7,0-3.051-.012-4.122-.06a7.374,7.374,0,0,1-2.426-.464,4.908,4.908,0,0,1-1.771-1.153,4.911,4.911,0,0,1-1.153-1.77A7.409,7.409,0,0,1,.06,14.118C.012,13.049,0,12.693,0,10S.012,6.946.06,5.875A7.4,7.4,0,0,1,.525,3.449,4.908,4.908,0,0,1,1.678,1.678,4.908,4.908,0,0,1,3.449.525,7.4,7.4,0,0,1,5.875.06C6.946.012,7.3,0,10,0s3.051.012,4.121.06a7.409,7.409,0,0,1,2.427.464,4.911,4.911,0,0,1,1.77,1.153,4.908,4.908,0,0,1,1.153,1.771,7.374,7.374,0,0,1,.464,2.426c.049,1.071.06,1.426.06,4.122s-.012,3.051-.06,4.121a7.385,7.385,0,0,1-.464,2.427,5.112,5.112,0,0,1-2.923,2.923,7.385,7.385,0,0,1-2.427.464C13.049,19.982,12.693,19.993,10,19.993ZM10,1.8c-2.655,0-2.973.01-4.04.059A5.5,5.5,0,0,0,4.1,2.2a3.1,3.1,0,0,0-1.15.747A3.1,3.1,0,0,0,2.2,4.1a5.5,5.5,0,0,0-.345,1.856C1.811,7.024,1.8,7.342,1.8,10s.01,2.972.059,4.039A5.519,5.519,0,0,0,2.2,15.893a3.1,3.1,0,0,0,.747,1.149,3.112,3.112,0,0,0,1.15.748,5.521,5.521,0,0,0,1.856.344c1.047.048,1.362.059,4.04.059s2.992-.01,4.039-.059a5.539,5.539,0,0,0,1.857-.344,3.312,3.312,0,0,0,1.9-1.9,5.539,5.539,0,0,0,.344-1.857c.048-1.047.059-1.362.059-4.039s-.01-2.993-.059-4.04A5.521,5.521,0,0,0,17.79,4.1a3.112,3.112,0,0,0-.748-1.15A3.1,3.1,0,0,0,15.893,2.2a5.519,5.519,0,0,0-1.857-.345C12.97,1.811,12.651,1.8,10,1.8Z" transform="translate(0 0.006)"/></g><path class="d" d="M5,10a5,5,0,1,1,5-5A5.006,5.006,0,0,1,5,10ZM5,1.754A3.246,3.246,0,1,0,8.246,5,3.25,3.25,0,0,0,5,1.754Z" transform="translate(5 5)"/><path class="d" d="M2,1A1,1,0,1,1,1,0,1,1,0,0,1,2,1" transform="translate(14 3)"/></g></g></svg>