<svg xmlns="http://www.w3.org/2000/svg" width="47" height="47" viewBox="0 0 47 47"><defs><style>.a{fill:none;stroke:#fff;stroke-miterlimit:10;}.b{fill:#fff;}</style></defs><g transform="translate(0.5 0.5)"><circle class="a" cx="23" cy="23" r="23"/><path class="b" d="M4.029,18.01H.3V5.992H4.029ZM2.161,4.353A2.171,2.171,0,1,1,4.322,2.171,2.179,2.179,0,0,1,2.161,4.353ZM18,18.01H14.272V12.16c0-1.394-.028-3.182-1.94-3.182-1.94,0-2.238,1.515-2.238,3.082v5.95H6.367V5.992H9.946V7.632H10a3.921,3.921,0,0,1,3.531-1.941C17.306,5.691,18,8.178,18,11.408v6.6Z" transform="translate(14 13.99)"/></g></svg>