<svg xmlns="http://www.w3.org/2000/svg" width="47" height="47" viewBox="0 0 47 47"><defs><style>.a{fill:#fff;}.b{fill:none;stroke:#fff;stroke-miterlimit:10;}</style></defs><g transform="translate(0.5 0.5)"><path class="a" d="M6.28,16.256A11.6,11.6,0,0,0,17.952,4.584c0-.176,0-.352-.008-.528a8.357,8.357,0,0,0,2.048-2.128,8.314,8.314,0,0,1-2.36.648A4.127,4.127,0,0,0,19.44.3a8.16,8.16,0,0,1-2.608.992A4.1,4.1,0,0,0,9.736,4.1a4.534,4.534,0,0,0,.1.936A11.649,11.649,0,0,1,1.384.752a4.119,4.119,0,0,0,1.272,5.48A4.149,4.149,0,0,1,.8,5.72v.056A4.111,4.111,0,0,0,4.088,9.8a4.126,4.126,0,0,1-1.848.072A4.1,4.1,0,0,0,6.072,12.72a8.228,8.228,0,0,1-5.1,1.76A7.894,7.894,0,0,1,0,14.424a11.669,11.669,0,0,0,6.28,1.832" transform="translate(13 15)"/><circle class="b" cx="23" cy="23" r="23"/></g></svg>