<svg xmlns="http://www.w3.org/2000/svg" xmlns:xlink="http://www.w3.org/1999/xlink" width="47" height="47" viewBox="0 0 47 47"><defs><style>.a,.b{fill:none;}.b{stroke:#fff;stroke-miterlimit:10;}.c{clip-path:url(#a);}.d{fill:#fff;}</style><clipPath id="a"><path class="a" d="M0,0H19.993V13.884H0Z" transform="translate(0.007 0.004)"/></clipPath></defs><g transform="translate(0.5 0.5)"><circle class="b" cx="23" cy="23" r="23"/><g transform="translate(13 16)"><path class="a" d="M0,0H19.993V13.884H0Z" transform="translate(0.007 0.004)"/><g class="c"><path class="d" d="M10,13.888c-.063,0-6.272,0-7.814-.414A2.5,2.5,0,0,1,.418,11.719,25.769,25.769,0,0,1,0,6.944,25.777,25.777,0,0,1,.418,2.169,2.494,2.494,0,0,1,2.186.415C3.728,0,9.937,0,10,0s6.272,0,7.814.415a2.494,2.494,0,0,1,1.768,1.754A25.777,25.777,0,0,1,20,6.944a25.769,25.769,0,0,1-.418,4.774,2.5,2.5,0,0,1-1.768,1.755C16.272,13.883,10.062,13.888,10,13.888ZM7.954,4.013V9.875l5.227-2.93Z"/></g></g></g></svg>